<svg width="392" height="347" viewBox="0 0 392 347" fill="none" xmlns="http://www.w3.org/2000/svg">
<path d="M81.0185 104.371C81.7658 104.371 82.5131 104.423 83.243 104.458C93.966 105.067 105.002 102.372 113.657 96.0257C122.625 89.471 128.777 78.8652 129.003 67.7552C129.229 56.6453 123.094 45.3962 113.153 40.441C103.751 35.7467 92.5931 36.8768 82.1829 38.3199C69.8957 40.0064 56.4615 42.6144 48.6755 52.2465C42.8361 59.4793 41.5848 69.407 45.0954 78.0133C48.467 86.3067 55.5404 103.867 81.0011 104.371H81.0185Z" fill="#F6F6F6"/>
<path d="M46.8854 204.292C29.1759 230.545 37.2051 268.135 58.2862 291.78C79.3673 315.409 110.424 327.544 141.151 335.177C181.349 345.174 223.094 348.86 264.422 346.096C290.787 344.322 317.516 339.767 340.874 327.388C364.232 315.009 383.957 293.849 389.693 268.03C395.289 242.803 387.138 216.462 375.546 193.373C363.936 170.283 348.816 148.985 338.945 125.113C327.909 98.4772 323.634 69.1809 310.356 43.588C297.078 17.995 270.331 -4.31186 241.951 0.712846C210.964 6.1896 194.922 38.3894 187.276 65.721C180.758 89.0363 177.057 113.76 164.178 134.241C150.901 155.366 129.906 167.936 106.01 173.326C83.3124 178.438 60.7888 183.671 46.8854 204.309V204.292Z" fill="#F6F6F6"/>
<path d="M206.653 332.569C132.791 332.569 74.2751 272.881 74.2056 197.493C74.1535 127.113 135.555 67.1815 207.505 67.3901C279.959 67.5988 339.449 128.208 339.049 201.423C338.667 272.777 278.308 332.552 206.636 332.552L206.653 332.569ZM176.101 200.084C164.856 211.211 154.672 221.539 144.175 231.571C138.422 237.065 138.248 241.899 144.175 247.288C148.78 251.461 153.038 256.034 157.505 260.38C166.837 269.474 167.654 269.491 176.709 260.572C186.685 250.731 196.608 240.873 207.296 230.284C213.762 237.135 219.01 243.133 224.711 248.679C249.65 273.02 242.107 273.403 267.464 248.818C276.275 240.282 276.153 238.595 267.064 229.589C257.297 219.905 247.408 210.359 236.233 199.458C243.167 193.164 249.285 188.087 254.846 182.489C280.307 156.879 280.046 164.32 254.742 138.327C248.555 131.981 243.671 131.599 237.536 138.258C227.769 148.863 217.481 158.965 207.314 169.397C195.774 157.887 185.381 147.751 175.266 137.353C169.757 131.703 164.821 131.546 159.399 137.336C154.429 142.639 149.354 147.855 144.018 152.775C138.04 158.304 138.648 163.12 144.279 168.527C154.724 178.577 164.891 188.922 176.101 200.084Z" fill="#878787"/>
<path d="M49.1794 131.338C42.5579 123.601 32.3041 119.132 22.1371 119.55C16.9234 119.776 11.5531 121.34 7.86873 125.026C4.25383 128.643 2.67231 133.807 1.61217 138.814C0.743204 142.865 0.117548 147.038 0.830101 151.124C1.54265 155.192 3.80197 159.191 7.48638 161.069C15.9675 165.433 26.0823 157.052 35.4497 158.878C38.4042 159.452 41.0459 161.017 43.7396 162.338C65.6028 172.944 56.357 139.718 49.1968 131.338H49.1794Z" fill="#F6F6F6"/>
</svg>
