<svg version="1.2" xmlns="http://www.w3.org/2000/svg" viewBox="0 0 967 703" width="967" height="703">
	<title>Getnet - 4Q21 Institutional Presentation -1-pdf-svg-svg-svg</title>
	<defs>
		<clipPath clipPathUnits="userSpaceOnUse" id="cp1">
			<path d="m-15198.87-214.07h20852.14v11724.39h-20852.14z"/>
		</clipPath>
	</defs>
	<style>
		.s0 { fill: #eb0000 } 
	</style>
	<g id="Clip-Path: Clip-Path: Clip-Path: Page 1" clip-path="url(#cp1)">
		<g id="Clip-Path: Clip-Path: Page 1">
			<g id="Clip-Path: Page 1">
				<g id="Page 1">
					<path id="Path 10" fill-rule="evenodd" class="s0" d="m441.9 322.1c0 0 0 0 107.6 0 0 0 0 0 0 345.4-54.3 21.6-131.3 34.6-205.2 34.6-223.7 0-344.2-145.5-344.2-351.8 0-223.5 131.2-349.5 357.2-349.5 73.9 0 137.9 7.7 187.8 26-1 31.6-8.6 68.4-19.4 97.7-46.8-14-100.1-27.1-168.4-27.1-157.5 0-244.3 90.1-244.3 248.6 0 173.6 93.2 258.5 238.9 258.5 29.4 0 60.7-3.3 90-9.9z"/>
					<path id="Path 10" fill-rule="evenodd" class="s0" d="m911 242.8c0 0 0 0 55.6 0 0 0 0 0 0 55.3 0 0 0 0-55.6 0zm0-108.6c0 0 0 0 55.6 0 0 0 0 0 0 55.6 0 0 0 0-55.6 0zm-108.5-109.7c0 0 0 0 55.3 0 0 0 0 0 0 55.4 0 0 0 0-55.3 0zm-108.6 218.2c0 0 0 0 55.3 0 0 0 0 0 0 55.3 0 0 0 0-55.3 0zm108.6-108.6c0 0 0 0 55.3 0 0 0 0 0 0 55.3 0 0 0 0-55.3 0zm164.1-109.6c0 0 0 0 0 55.3 0 0 0 0-55.6 0 0 0 0 0 0-55.3zm-272.6 109.6c0 0 0 0 55.5 0 0 0 0 0 0 55.4 0 0 0 0-55.5 0zm0-109.7c0 0 0 0 55.5 0 0 0 0 0 0 55.4 0 0 0 0-55.5 0zm108.8 218.2c0 0 0 0 55.3 0 0 0 0 0 0 55.3 0 0 0 0-55.3 0z"/>
				</g>
			</g>
		</g>
	</g>
</svg>