<svg width="113" height="42" viewBox="0 0 113 42" fill="none" xmlns="http://www.w3.org/2000/svg">
<g clip-path="url(#clip0_4103_51)">
<path d="M47.9189 38.2605V22.6471H53.9959C57.0218 22.6471 58.9969 24.2074 58.9969 27.0889V27.4835C58.9969 30.3868 57.0218 31.9254 53.9959 31.9254H49.7857V38.2568H47.9226L47.9189 38.2605ZM49.7857 30.2999H53.9309C55.8844 30.2999 57.112 29.3985 57.112 27.4835V27.0889C57.112 25.1739 55.8844 24.2725 53.9309 24.2725H49.7857V30.2963V30.2999Z" fill="#0050D7"/>
<path d="M59.6541 35.3137C59.6541 33.6847 60.6181 32.4539 62.4163 32.1896L67.1537 31.4873V30.499C67.1537 28.87 66.0127 28.146 64.5648 28.146C63.0085 28.146 61.9325 28.9171 61.8025 30.2782H60.091C60.2896 28.0338 61.9758 26.7161 64.5864 26.7161C67.327 26.7161 68.8869 28.2763 68.8869 30.6076V38.2605H67.2404L67.1754 36.5011C66.4532 37.8188 65.0053 38.5247 63.4237 38.5247C61.0767 38.5247 59.6505 37.207 59.6505 35.3137H59.6541ZM67.1537 34.0829V32.9172L62.9868 33.5326C61.9108 33.6883 61.4306 34.3037 61.4306 35.2703C61.4306 36.3491 62.178 37.0513 63.6007 37.0513C65.4855 37.0513 67.1537 35.7988 67.1537 34.0829Z" fill="#0050D7"/>
<path d="M72.8587 42L74.3067 38.2388L69.9196 26.9803H71.8044L75.2274 36.2151L78.4952 26.9803H80.315L74.6569 42H72.8587Z" fill="#0050D7"/>
<path d="M84.3302 5.25635C83.4095 5.25635 82.8426 5.82832 82.8426 6.76592V13.5029C82.8426 15.617 81.8027 16.674 79.7842 16.674C77.7658 16.674 76.6934 15.617 76.6934 13.5029V6.76592C76.6934 5.82832 76.1301 5.25635 75.2057 5.25635C74.2814 5.25635 73.7181 5.82832 73.7181 6.76592V13.5029C73.7181 17.2207 76.0362 19.5447 79.7517 19.5447C83.4672 19.5447 85.8143 17.217 85.8143 13.5029V6.76592C85.8143 5.82832 85.251 5.25635 84.3266 5.25635H84.3302Z" fill="#0050D7"/>
<path d="M91.0138 0C90.0931 0 89.5262 0.604551 89.5262 1.54215V17.8867C89.5262 18.8243 90.0895 19.4289 91.0138 19.4289C91.9382 19.4289 92.5015 18.8243 92.5015 17.8867V1.54215C92.5015 0.604551 91.9382 0 91.0138 0Z" fill="#0050D7"/>
<path d="M65.6696 1.84262C62.9976 1.84262 61.51 3.32323 61.2139 6.25548L60.322 15.1681C60.2317 16.0441 59.6973 16.4966 58.7766 16.4966C57.8558 16.4966 57.3214 16.0441 57.2312 15.1681L56.3393 6.25548C56.0432 3.32685 54.5556 1.84262 51.8836 1.84262C49.2116 1.84262 47.547 3.53319 47.547 6.25548V17.8868C47.547 18.8243 48.1103 19.4289 49.0347 19.4289C49.959 19.4289 50.5223 18.8243 50.5223 17.8868V6.25548C50.5223 5.31788 51.0567 4.74591 51.9486 4.74591C52.8404 4.74591 53.2846 5.25996 53.3748 6.25548L54.2667 15.1681C54.5628 18.0062 56.0793 19.4289 58.7838 19.4289C61.4883 19.4289 63.0012 18.0098 63.3009 15.1681L64.1928 6.25548C64.2831 5.25996 64.7561 4.74591 65.6191 4.74591C66.482 4.74591 67.0453 5.31788 67.0453 6.25548V17.8868C67.0453 18.8243 67.6086 19.4289 68.533 19.4289C69.4573 19.4289 70.0206 18.8243 70.0206 17.8868V6.25548C70.0206 3.53681 68.356 1.84262 65.684 1.84262H65.6696Z" fill="#0050D7"/>
<path d="M111.187 5.25635C110.267 5.25635 109.7 5.8609 109.7 6.7985V17.8868C109.7 18.8244 110.263 19.4289 111.187 19.4289C112.112 19.4289 112.675 18.8244 112.675 17.8868V6.7985C112.675 5.8609 112.112 5.25635 111.187 5.25635Z" fill="#0050D7"/>
<path d="M111.187 3.62731C112.188 3.62731 113 2.81641 113 1.81365C113 0.810895 112.188 0 111.187 0C110.187 0 109.375 0.810895 109.375 1.81365C109.375 2.81641 110.187 3.62731 111.187 3.62731Z" fill="#0050D7"/>
<path d="M105.273 16.4061C104.738 16.4061 104.175 16.6776 103.431 16.6776C101.709 16.6776 100.817 15.7111 100.817 13.8069V8.12704H105.006C105.926 8.12704 106.493 7.61299 106.493 6.7659C106.493 5.9188 105.93 5.40475 105.006 5.40475H100.817V3.38114C100.817 2.44354 100.254 1.83899 99.362 1.83899C98.4701 1.83899 97.9068 2.44354 97.9068 3.38114V5.40475H96.2133C95.2926 5.40475 94.7293 5.9188 94.7293 6.7659C94.7293 7.61299 95.2926 8.12704 96.2133 8.12704H97.9068V13.8069C97.9068 17.3401 100.016 19.5483 103.431 19.5483C104.8 19.5483 106.638 19.1574 106.638 17.8542C106.638 17.0686 106.132 16.4025 105.269 16.4025L105.273 16.4061Z" fill="#0050D7"/>
<path d="M19.0506 19.6606C19.52 19.9683 20.0219 20.1855 20.6032 20.2651C20.6069 20.3484 20.6105 20.4063 20.6141 20.4606C20.6285 21.0398 20.9643 21.4091 21.4698 21.4018C21.9717 21.3946 22.3075 21.0181 22.3003 20.4353C22.3003 20.247 22.3545 20.1601 22.5314 20.0914C23.8494 19.5701 24.6148 18.1908 24.3368 16.8188C24.1382 15.8305 23.5027 15.2115 22.5892 14.8423C22.0259 14.6142 21.4698 14.3644 20.9138 14.1182C20.6538 14.0024 20.4841 13.8142 20.5238 13.5028C20.5707 13.1517 20.7188 12.8657 21.0763 12.7535C21.5709 12.5978 22.0295 12.6775 22.47 12.9671C22.8708 13.235 23.3872 13.1155 23.6363 12.7318C23.8891 12.3444 23.7988 11.8304 23.3944 11.5661C23.1452 11.4032 22.8744 11.2656 22.5928 11.1643C22.3942 11.0919 22.2931 11.0267 22.2931 10.7842C22.2931 10.2955 21.9067 9.95155 21.4409 9.95879C20.9752 9.96603 20.6177 10.3244 20.6249 10.8167C20.6249 11.0412 20.5563 11.1317 20.3505 11.2222C19.4008 11.6385 18.9098 12.4096 18.8412 13.4232C18.7762 14.3608 19.1878 15.0776 20.0075 15.5446C20.188 15.6459 20.3613 15.7581 20.5527 15.8378C21.0618 16.055 21.5782 16.2505 22.0873 16.464C22.5278 16.6487 22.7372 16.9817 22.7083 17.4342C22.6722 17.97 22.2787 18.4551 21.7551 18.5564C21.116 18.6795 20.513 18.5963 19.9533 18.2234C19.5164 17.9338 19.0037 18.0496 18.7473 18.4587C18.4873 18.8714 18.6173 19.3673 19.0578 19.6533L19.0506 19.6606Z" fill="#0050D7"/>
<path d="M36.7941 1.21634H3.08362C1.37933 1.21634 0 2.60282 0 4.30787V38.1012C0 39.8099 1.37933 41.1927 3.08362 41.1927H36.7904C38.4947 41.1927 39.8741 39.8099 39.8741 38.1012V4.30787C39.8741 2.5992 38.4947 1.21634 36.7904 1.21634H36.7941ZM18.4259 7.41389C19.1409 7.13515 19.928 7.0374 20.6827 6.86002C20.7549 6.84192 20.8271 6.82744 20.8993 6.80934H22.2498C22.8094 6.91794 23.3835 6.97586 23.9216 7.14963C27.536 8.30443 29.7024 10.7733 30.2441 14.5346C30.9157 19.2153 27.749 23.534 23.12 24.4101C18.5848 25.2717 14.0352 22.2525 13.0169 17.7057C12.0384 13.3472 14.2843 9.02844 18.4223 7.41389H18.4259ZM8.03764 35.7264C7.35881 35.7264 6.71248 35.7409 6.06614 35.7228C5.58591 35.7083 5.2826 35.3318 5.2826 34.7997C5.2826 33.1055 5.2826 31.4113 5.2826 29.7171C5.2826 29.2284 5.27538 28.7397 5.2826 28.2474C5.28982 27.8311 5.54258 27.4582 5.92532 27.4365C6.62221 27.3967 7.32631 27.4256 8.03764 27.4256V35.7264ZM32.9233 28.6239C30.9987 30.557 29.0742 32.4865 27.1496 34.416C27.0485 34.5173 26.951 34.6187 26.8499 34.7128C26.1386 35.3753 25.2937 35.7264 24.326 35.7264C19.5489 35.73 14.7682 35.7264 9.99109 35.7264C9.91887 35.7264 9.84665 35.7192 9.74555 35.7119V27.8817C9.74555 26.2382 10.5796 25.25 12.1828 24.8771C14.1977 24.4101 16.0861 24.6888 17.9023 25.6554C18.3898 25.9124 18.9025 26.1405 19.4261 26.2998C19.8955 26.441 20.3974 26.5206 20.8885 26.5423C21.7226 26.5821 22.5603 26.5496 23.3944 26.5532C24.0335 26.5532 24.3548 26.8971 24.344 27.5415C24.3187 28.7542 23.676 29.6049 22.6036 29.8257C22.4122 29.8655 22.21 29.8655 22.0151 29.8655C20.4082 29.8655 18.805 29.8583 17.1982 29.8764C16.9708 29.8764 16.7144 29.9633 16.523 30.0864C16.2305 30.2782 16.1439 30.6511 16.2558 30.9697C16.375 31.3099 16.6205 31.5199 16.9816 31.5489C17.2416 31.5706 17.5052 31.5597 17.7687 31.5597C19.1878 31.5597 20.6032 31.5525 22.0223 31.5597C22.7192 31.5633 23.2969 31.3208 23.788 30.8249C24.9542 29.6483 26.1169 28.4754 27.294 27.3134C28.7817 25.8436 31.0818 25.7423 32.7066 27.0564C32.7716 27.1107 32.8366 27.165 32.898 27.2229C33.3746 27.6682 33.3855 28.1532 32.9233 28.6202V28.6239Z" fill="#0050D7"/>
</g>
<defs>
<clipPath id="clip0_4103_51">
<rect width="113" height="42" fill="white"/>
</clipPath>
</defs>
</svg>
