<?xml version="1.0" encoding="UTF-8"?>
<svg version="1.1" xmlns="http://www.w3.org/2000/svg" width="225" height="225">
<path d="M0 0 C1.36108643 2.6875051 2.64920878 5.39598027 3.890625 8.140625 C8.9268336 19.10543832 14.50316803 29.57060742 20.66040039 39.94604492 C24.79727135 46.91836913 28.80359404 53.9460077 32.6875 61.0625 C33.18040527 61.96025146 33.67331055 62.85800293 34.18115234 63.78295898 C41.24631047 76.79022959 41.24631047 76.79022959 41.6875 83.9375 C41.75324219 84.89527344 41.81898438 85.85304688 41.88671875 86.83984375 C41.92410156 87.55269531 41.96148437 88.26554687 42 89 C42.87785156 89.185625 42.87785156 89.185625 43.7734375 89.375 C57.75889721 92.7348702 70.89246339 98.85601406 82 108 C82.65097656 108.47824219 83.30195313 108.95648438 83.97265625 109.44921875 C90.92592994 114.7826089 96.65142235 123.30916627 98 132 C99.17057925 144.04721146 96.32164659 152.98225304 89.0625 162.625 C70.80470556 183.52972345 41.64208752 191.64080811 15 194 C-11.39708061 195.70924004 -37.60581007 194.06919156 -62 183 C-62.95374512 182.56929199 -62.95374512 182.56929199 -63.92675781 182.12988281 C-78.48276655 175.40781188 -91.96149842 164.75341595 -98.24609375 149.5546875 C-100.85852294 140.70220726 -100.85429078 131.90143905 -96.84375 123.609375 C-86.42257529 104.73546969 -65.81965741 95.16975561 -46 89 C-45.34 89 -44.68 89 -44 89 C-43.94005859 90.18529297 -43.94005859 90.18529297 -43.87890625 91.39453125 C-42.4053472 107.31260743 -33.98217337 120.6888238 -25.88671875 134.1328125 C-22.54119334 139.72028377 -19.35644873 145.39699242 -16.18609619 151.08496094 C-15.21585443 152.82417311 -14.24056996 154.56056914 -13.26513672 156.296875 C-3 174.74861428 -3 174.74861428 -3 181 C-2.34 181 -1.68 181 -1 181 C-0.53963371 179.64652311 -0.08183463 178.292173 0.375 176.9375 C0.63023438 176.18339844 0.88546875 175.42929688 1.1484375 174.65234375 C1.42945312 173.77707031 1.71046875 172.90179688 2 172 C2.35578125 170.90171875 2.7115625 169.8034375 3.078125 168.671875 C4.05859371 164.76661826 4.33496882 161.33563403 4.375 157.3125 C4.40335937 156.02988281 4.43171875 154.74726563 4.4609375 153.42578125 C3.88846228 143.56699771 -0.88319953 134.76086843 -5.8125 126.4375 C-6.96301434 124.4418527 -8.11271837 122.44573809 -9.26171875 120.44921875 C-9.8654834 119.40813965 -10.46924805 118.36706055 -11.09130859 117.29443359 C-14.1319651 112.04620913 -17.15108896 106.78668823 -20.13095093 101.50369263 C-21.09832773 99.79705498 -22.07985941 98.09846515 -23.06176758 96.40014648 C-30.60751851 83.02335811 -33.69191019 69.1441063 -29.7109375 53.94140625 C-28.52068628 50.69110484 -26.86033326 47.91452211 -25 45 C-23.4076341 47.38854885 -22.24840895 49.49101486 -21.07421875 52.078125 C-14.74235335 65.81970644 -7.56878832 78.90739413 0 92 C2.48700687 96.32009081 4.96596472 100.64478548 7.44329834 104.97042847 C8.46990316 106.76003435 9.50049979 108.54728979 10.53173828 110.33422852 C20.69128553 128.02444092 20.69128553 128.02444092 23 136 C28.48429384 124.49895662 31.19455799 113.13162638 27.859375 100.421875 C22.30319612 84.76355269 12.30240901 70.19549116 4.04296875 55.87109375 C-4.12079142 41.62493172 -9.02797914 28.36820059 -5.11328125 11.7578125 C-3.83331554 7.43736685 -2.11993829 3.95721814 0 0 Z " fill="#EC0101" transform="translate(114,10)"/>
</svg>
